<svg xmlns="http://www.w3.org/2000/svg" width="29" height="38" viewBox="0 0 29 38"><path d="M27,8a7.537,7.537,0,0,1,4.767,1.217c1.451.868,3.1,1.852,7.233,1.858V16c-3.281,0-4.348-.669-5.478-1.378A9.018,9.018,0,0,0,28,13a3.283,3.283,0,0,0-1,.146V8M25,33.61V36c0,3.8-.829,6-5.064,6C14,42,14,39.688,14,38c0-1.337,0-3,6-3a7.887,7.887,0,0,0,5-1.39M27,6a1.784,1.784,0,0,0-2,2V29c0,2.214-1.033,4-5,4-5.661,0-8,1.464-8,5,0,2.383.489,6,7.936,6C26.855,44,27,38.682,27,36V17c0-1.355.2-2,1-2,5.138,0,3.871,3,11,3,0,0,2,0,2-1.7V10.968c0-1.533-.688-1.893-1.962-1.893C31.925,9.076,33.674,6,27,6Z" transform="translate(-12 -6)" fill="#156f56"/></svg>